#!OML:ASF G:\JayActor3\Patient Classification 1\Patient 1\Session 6\male.ASF
:FULLY-SPECIFIED
:DEGREES
1420
root 27.3686 14.0113 -4.04116 211.242 -47.6205 -174.876
lowerback 41.7513 2.22827 0.892541
upperback 12.1463 0.533144 1.3456
thorax -6.34538 -0.770164 0.869396
lowerneck 5.30097 2.81258 3.28055
upperneck -44.0914 1.05922 -1.55927
head -16.8911 -1.96881 -0.835184
rclavicle -6.36111e-015 4.62174e-015
rhumerus -24.0615 10.4755 -78.6412
rradius 91.0776
rwrist 7.17324
rhand -37.5274 -6.31564
rfingers 7.12502
rthumb -10.5834 -36.0292
lclavicle -6.36111e-015 4.62174e-015
lhumerus -35.3017 -12.168 72.4451
lradius 88.6236
lwrist 19.0591
lhand -31.0631 3.31365
lfingers 7.12502
lthumb -4.34405 33.2491
rfemur -82.8293 4.06171 24.8289
rtibia 76.8006
rfoot -28.9924 -15.4527
rtoes -12.1021
lfemur -81.7117 3.39722 -18.9374
ltibia 75.1588
lfoot -26.5033 10.0923
ltoes -9.39405
1421
root 27.3632 14.0044 -4.05753 211.982 -47.7018 -174.899
lowerback 41.9099 2.20515 0.851803
upperback 12.0204 0.521537 1.32391
thorax -6.53226 -0.763026 0.873435
lowerneck 4.9279 2.89246 3.26649
upperneck -44.4209 1.07659 -1.56634
head -16.9905 -2.02584 -0.818065
rclavicle -1.66979e-014 2.35808e-014
rhumerus -24.8742 10.3724 -78.5049
rradius 91.5997
rwrist 6.99361
rhand -37.5784 -6.27518
rfingers 7.12502
rthumb -10.6326 -35.9862
lclavicle -1.66979e-014 2.35808e-014
lhumerus -36.5263 -12.4966 72.3152
lradius 89.111
lwrist 19.2768
lhand -31.2083 3.31355
lfingers 7.12502
lthumb -4.48426 33.2461
rfemur -83.6141 4.12386 24.7873
rtibia 76.8575
rfoot -29.0317 -15.4978
rtoes -12.0936
lfemur -82.5315 3.46078 -19.0113
ltibia 75.2059
lfoot -26.4639 9.99424
ltoes -9.51355
1422
root 27.3577 13.9937 -4.07485 212.772 -47.7816 -174.924
lowerback 42.028 2.18441 0.815447
upperback 11.8893 0.517397 1.29032
thorax -6.71303 -0.750175 0.859248
lowerneck 4.54986 2.967 3.28749
upperneck -44.7482 1.08576 -1.58936
head -17.0889 -2.09098 -0.812927
rclavicle -2.96189e-014 -1.47101e-014
rhumerus -25.7427 10.2641 -78.3292
rradius 92.2011
rwrist 6.74547
rhand -37.6617 -6.16461
rfingers 7.12502
rthumb -10.713 -35.8715
lclavicle -2.96189e-014 -1.47101e-014
lhumerus -37.7265 -12.8066 72.2233
lradius 89.606
lwrist 19.491
lhand -31.3504 3.31178
lfingers 7.12502
lthumb -4.62144 33.2414
rfemur -84.4783 4.18703 24.7513
rtibia 76.953
rfoot -29.0716 -15.5517
rtoes -12.097
lfemur -83.4331 3.5465 -19.1057
ltibia 75.292
lfoot -26.4286 9.87122
ltoes -9.63658
1423
root 27.3517 13.9793 -4.09304 213.596 -47.865 -174.961
lowerback 42.1383 2.16119 0.784213
upperback 11.7516 0.513989 1.25089
thorax -6.89876 -0.735812 0.835794
lowerneck 4.16694 3.0419 3.32537
upperneck -45.0692 1.09125 -1.63125
head -17.1837 -2.15826 -0.8188
rclavicle -8.22969e-014 -6.70898e-015
rhumerus -26.6078 10.1385 -78.1721
rradius 92.7932
rwrist 6.48084
rhand -37.7806 -6.01301
rfingers 7.12502
rthumb -10.8277 -35.7139
lclavicle -8.22969e-014 -6.70898e-015
lhumerus -38.8996 -13.0738 72.1804
lradius 90.1055
lwrist 19.7003
lhand -31.4511 3.32872
lfingers 7.12502
lthumb -4.71872 33.2562
rfemur -85.3927 4.23421 24.7217
rtibia 77.0887
rfoot -29.1213 -15.6001
rtoes -12.0929
lfemur -84.3853 3.64199 -19.2243
ltibia 75.4158
lfoot -26.4031 9.72209
ltoes -9.74989
1424
root 27.3449 13.9619 -4.11222 214.434 -47.9512 -175.007
lowerback 42.2645 2.13238 0.762308
upperback 11.6049 0.50813 1.20536
thorax -7.09889 -0.721934 0.802085
lowerneck 3.78642 3.11771 3.36357
upperneck -45.3832 1.09664 -1.68002
head -17.2763 -2.22438 -0.827955
rclavicle 7.43455e-014 2.18415e-014
rhumerus -27.4515 9.99207 -78.068
rradius 93.3501
rwrist 6.22283
rhand -37.9374 -5.82897
rfingers 7.12502
rthumb -10.9789 -35.5219
lclavicle 7.43455e-014 2.18415e-014
lhumerus -40.0394 -13.2855 72.1897
lradius 90.5983
lwrist 19.9069
lhand -31.5194 3.35113
lfingers 7.12502
lthumb -4.78464 33.2771
rfemur -86.332 4.26117 24.705
rtibia 77.2607
rfoot -29.1853 -15.6336
rtoes -12.079
lfemur -85.3612 3.74757 -19.3659
ltibia 75.5733
lfoot -26.392 9.54871
ltoes -9.86568
1425
root 27.3367 13.9419 -4.13231 215.263 -48.0446 -175.059
lowerback 42.4193 2.10064 0.742297
upperback 11.4603 0.497991 1.17039
thorax -7.30499 -0.711334 0.780484
lowerneck 3.40374 3.19632 3.37391
upperneck -45.6961 1.10136 -1.72508
head -17.3699 -2.28757 -0.829808
rclavicle -4.33351e-014 -5.67033e-014
rhumerus -28.2302 9.84049 -78.0099
rradius 93.8447
rwrist 5.98161
rhand -38.1131 -5.67384
rfingers 7.12502
rthumb -11.1484 -35.3577
lclavicle -4.33351e-014 -5.67033e-014
lhumerus -41.1213 -13.4089 72.2703
lradius 91.0668
lwrist 20.1103
lhand -31.5715 3.36967
lfingers 7.12502
lthumb -4.835 33.2945
rfemur -87.2695 4.26006 24.7096
rtibia 77.4656
rfoot -29.2582 -15.6506
rtoes -12.0599
lfemur -86.3343 3.85851 -19.5259
ltibia 75.762
lfoot -26.3998 9.34495
ltoes -9.97116
